<svg width="364" height="410" viewBox="0 0 364 410" fill="none" xmlns="http://www.w3.org/2000/svg">
<g clip-path="url(#clip0_73_1697)">
<path d="M299.659 226.816C237.05 296.448 201.784 324.237 186.722 335.974C181.473 340.379 175.358 343.625 168.774 345.5C158.705 347.641 148.203 346.091 139.176 341.132C138.984 348.897 140.422 356.616 143.396 363.788C146.371 370.96 150.815 377.425 156.441 382.764C163.504 389.642 172.845 393.671 182.681 394.079C198.425 393.5 208.501 379.29 224.35 356.658C253.358 315.777 278.566 272.315 299.659 226.816Z" fill="url(#paint0_linear_73_1697)"/>
<path d="M0 94.9208C38.6776 107.5 67.9089 117.868 81.816 123.289C87.8413 125.458 93.2463 129.072 97.56 133.816C102.773 138.707 105.99 145.365 106.587 152.5C107.321 168.289 112.254 231.447 114.039 241.973C119.442 271.838 128.01 301.039 139.596 329.079C151.299 358.026 159.801 376.763 178.116 383.342C186.274 385.935 195.006 386.099 203.254 383.816C196.904 393.026 186.146 406.447 170.297 409.026C140.436 413.868 113.566 379.973 98.9769 361.658C39.045 286.184 19.1027 194.605 3.88351 116.289C2.15167 107.131 0.839677 99.8155 0 94.9208Z" fill="url(#paint1_linear_73_1697)"/>
<path d="M164.264 325.973C199.425 244.079 224.353 186.605 229.811 172.236C230.493 170.394 234.639 161.71 242.931 144.921C244.289 141.345 246.36 138.086 249.018 135.342C256.943 127.973 265.497 132.71 271.007 126.552C277.83 118.868 272.477 110.763 277.41 100.236C283.025 88.2365 296.513 83.8154 310.997 79.1838C321.755 75.6575 353.716 65.1312 362.112 76.7628C367.36 84.1838 361.22 97.447 344.532 126.394C319.079 170.394 306.379 192.447 291.789 210.605C255.211 255.182 212.234 294.062 164.264 325.973Z" fill="url(#paint2_linear_73_1697)"/>
<path d="M44.9227 90.6053C69.7329 90.6053 89.8455 70.4345 89.8455 45.5526C89.8455 20.6708 69.7329 0.5 44.9227 0.5C20.1126 0.5 0 20.6708 0 45.5526C0 70.4345 20.1126 90.6053 44.9227 90.6053Z" fill="url(#paint3_linear_73_1697)"/>
</g>
<defs>
<linearGradient id="paint0_linear_73_1697" x1="293.046" y1="232.237" x2="158.127" y2="375.69" gradientUnits="userSpaceOnUse">
<stop stop-color="#CEB0FA"/>
<stop offset="0.43" stop-color="#7254F4"/>
<stop offset="1" stop-color="#4600A9"/>
</linearGradient>
<linearGradient id="paint1_linear_73_1697" x1="19.2076" y1="90.1313" x2="173.012" y2="410.838" gradientUnits="userSpaceOnUse">
<stop stop-color="#F8B1CC"/>
<stop offset="0.69" stop-color="#9654F4"/>
<stop offset="0.87" stop-color="#6200EE"/>
<stop offset="1" stop-color="#4600A9"/>
</linearGradient>
<linearGradient id="paint2_linear_73_1697" x1="366.153" y1="45.6575" x2="148.035" y2="333.578" gradientUnits="userSpaceOnUse">
<stop stop-color="#F8B1CC"/>
<stop offset="0.501667" stop-color="#9654F4"/>
<stop offset="0.9" stop-color="#6200EE"/>
</linearGradient>
<linearGradient id="paint3_linear_73_1697" x1="44.9227" y1="0.5" x2="44.9227" y2="90.6053" gradientUnits="userSpaceOnUse">
<stop stop-color="#F8B1CC"/>
<stop offset="1" stop-color="#D38EDB"/>
</linearGradient>
<clipPath id="clip0_73_1697">
<rect width="364" height="409" fill="white" transform="translate(0 0.5)"/>
</clipPath>
</defs>
</svg>
