<svg width="36" height="38" viewBox="0 0 36 38" fill="none" xmlns="http://www.w3.org/2000/svg">
<path d="M13.5644 37.1949C12.4334 37.1949 11.3622 36.6671 10.6758 35.7571L1.38601 23.4825C1.09813 23.1037 0.887886 22.6718 0.767338 22.2115C0.646789 21.7513 0.61831 21.2717 0.683533 20.8005C0.748755 20.3292 0.906396 19.8754 1.14741 19.4652C1.38843 19.0549 1.70807 18.6963 2.08801 18.4099C2.46698 18.1213 2.89928 17.9104 3.36006 17.7894C3.82084 17.6684 4.30099 17.6396 4.77291 17.7049C5.24482 17.7701 5.69917 17.928 6.10984 18.1695C6.5205 18.411 6.87937 18.7313 7.16581 19.1119L13.2784 27.1823L28.647 2.50314C29.1567 1.6883 29.9688 1.10889 30.9051 0.891986C31.8414 0.675086 32.8255 0.838414 33.6416 1.34614C35.3394 2.40174 35.862 4.63774 34.8012 6.33814L16.6428 35.4841C16.3328 35.9839 15.9056 36.4005 15.3981 36.6977C14.8907 36.9949 14.3183 37.1638 13.7308 37.1897L13.5644 37.1949Z" fill="#F5F5F5"/>
</svg>
