<svg width="44" height="44" viewBox="0 0 44 44" fill="none" xmlns="http://www.w3.org/2000/svg">
<path d="M14.6665 5.6582C14.6665 4.92886 14.9562 4.22938 15.472 3.71366C15.9877 3.19793 16.6872 2.9082 17.4165 2.9082H26.5832C27.3125 2.9082 28.012 3.19793 28.5277 3.71366C29.0434 4.22938 29.3332 4.92886 29.3332 5.6582V7.49154C29.3332 8.22088 29.0434 8.92036 28.5277 9.43608C28.012 9.95181 27.3125 10.2415 26.5832 10.2415H17.4165C16.6872 10.2415 15.9877 9.95181 15.472 9.43608C14.9562 8.92036 14.6665 8.22088 14.6665 7.49154V5.6582Z" fill="white"/>
<path fill-rule="evenodd" clip-rule="evenodd" d="M11.9167 6.64258C9.61033 6.77091 8.15467 7.13758 7.1115 8.18258C5.5 9.79408 5.5 12.3864 5.5 17.5711V28.5711C5.5 33.7576 5.5 36.3499 7.1115 37.9614C8.72117 39.5711 11.3153 39.5711 16.5 39.5711H27.5C32.6847 39.5711 35.2788 39.5711 36.8885 37.9614C38.5 36.3481 38.5 33.7576 38.5 28.5711V17.5711C38.5 12.3864 38.5 9.79408 36.8885 8.18258C35.8453 7.13758 34.3897 6.77091 32.0833 6.64258V7.49141C32.0833 8.9501 31.5039 10.349 30.4724 11.3805C29.441 12.4119 28.042 12.9914 26.5833 12.9914H17.4167C15.958 12.9914 14.559 12.4119 13.5276 11.3805C12.4961 10.349 11.9167 8.9501 11.9167 7.49141V6.64258ZM11.4583 18.4914C11.4583 18.1267 11.6032 17.777 11.8611 17.5191C12.1189 17.2613 12.4687 17.1164 12.8333 17.1164H31.1667C31.5313 17.1164 31.8811 17.2613 32.1389 17.5191C32.3968 17.777 32.5417 18.1267 32.5417 18.4914C32.5417 18.8561 32.3968 19.2058 32.1389 19.4637C31.8811 19.7215 31.5313 19.8664 31.1667 19.8664H12.8333C12.4687 19.8664 12.1189 19.7215 11.8611 19.4637C11.6032 19.2058 11.4583 18.8561 11.4583 18.4914ZM13.2917 24.9081C13.2917 24.5434 13.4365 24.1937 13.6944 23.9358C13.9523 23.6779 14.302 23.5331 14.6667 23.5331H29.3333C29.698 23.5331 30.0477 23.6779 30.3056 23.9358C30.5635 24.1937 30.7083 24.5434 30.7083 24.9081C30.7083 25.2728 30.5635 25.6225 30.3056 25.8804C30.0477 26.1382 29.698 26.2831 29.3333 26.2831H14.6667C14.302 26.2831 13.9523 26.1382 13.6944 25.8804C13.4365 25.6225 13.2917 25.2728 13.2917 24.9081ZM15.125 31.3247C15.125 30.9601 15.2699 30.6103 15.5277 30.3525C15.7856 30.0946 16.1353 29.9497 16.5 29.9497H27.5C27.8647 29.9497 28.2144 30.0946 28.4723 30.3525C28.7301 30.6103 28.875 30.9601 28.875 31.3247C28.875 31.6894 28.7301 32.0392 28.4723 32.297C28.2144 32.5549 27.8647 32.6997 27.5 32.6997H16.5C16.1353 32.6997 15.7856 32.5549 15.5277 32.297C15.2699 32.0392 15.125 31.6894 15.125 31.3247Z" fill="white"/>
</svg>
