<svg width="124" height="124" viewBox="0 0 124 124" fill="none" xmlns="http://www.w3.org/2000/svg">
<rect width="124" height="124" rx="62" fill="url(#paint0_linear_544_2052)"/>
<path fill-rule="evenodd" clip-rule="evenodd" d="M79.0133 32.5133C81.031 30.4956 84.3023 30.4956 86.3201 32.5133L101.82 48.0133C103.838 50.031 103.838 53.3023 101.82 55.32C99.8024 57.3378 96.531 57.3378 94.5133 55.32L79.0133 39.8201C76.9956 37.8023 76.9956 34.531 79.0133 32.5133Z" fill="white"/>
<path fill-rule="evenodd" clip-rule="evenodd" d="M101.821 32.5133C103.838 34.531 103.838 37.8023 101.821 39.82L86.3207 55.32C84.303 57.3378 81.0316 57.3378 79.0139 55.3201C76.9962 53.3023 76.9962 50.031 79.0139 48.0133L94.5139 32.5133C96.5316 30.4956 99.803 30.4956 101.821 32.5133Z" fill="white"/>
<path fill-rule="evenodd" clip-rule="evenodd" d="M22.1793 32.5133C24.197 30.4956 27.4684 30.4956 29.4861 32.5133L44.9861 48.0133C47.0038 50.031 47.0038 53.3023 44.9861 55.32C42.9684 57.3378 39.697 57.3378 37.6793 55.32L22.1793 39.8201C20.1616 37.8023 20.1616 34.531 22.1793 32.5133Z" fill="white"/>
<path fill-rule="evenodd" clip-rule="evenodd" d="M44.9867 32.5133C47.0044 34.531 47.0044 37.8023 44.9867 39.82L29.4867 55.32C27.469 57.3378 24.1976 57.3378 22.1799 55.3201C20.1622 53.3023 20.1622 50.031 22.1799 48.0133L37.6799 32.5133C39.6977 30.4956 42.969 30.4956 44.9867 32.5133Z" fill="white"/>
<path fill-rule="evenodd" clip-rule="evenodd" d="M43.1293 73.5725C48.5433 69.4183 55.1768 67.1665 62.0009 67.1665C68.8251 67.1665 75.4586 69.4183 80.8726 73.5726C86.2865 77.7268 90.1784 83.5515 91.9446 90.1431C92.6832 92.8994 91.0475 95.7325 88.2913 96.471C85.535 97.2095 82.7019 95.5738 81.9634 92.8176C80.7859 88.4232 78.1913 84.5401 74.582 81.7705C70.9727 79.001 66.5504 77.4998 62.0009 77.4998C57.4515 77.4998 53.0292 79.001 49.4199 81.7705C45.8105 84.5401 43.2159 88.4232 42.0385 92.8176C41.2999 95.5738 38.4668 97.2095 35.7106 96.471C32.9544 95.7324 31.3187 92.8994 32.0572 90.1431C33.8234 83.5515 37.7153 77.7268 43.1293 73.5725Z" fill="white"/>
<defs>
<linearGradient id="paint0_linear_544_2052" x1="125.377" y1="-12.5586" x2="28.4237" y2="150.586" gradientUnits="userSpaceOnUse">
<stop stop-color="#F8B1CC"/>
<stop offset="0.501667" stop-color="#9654F4"/>
<stop offset="0.9" stop-color="#6200EE"/>
</linearGradient>
</defs>
</svg>
