<svg width="124" height="124" viewBox="0 0 124 124" fill="none" xmlns="http://www.w3.org/2000/svg">
<rect width="124" height="124" rx="62" fill="url(#paint0_linear_544_394)"/>
<path fill-rule="evenodd" clip-rule="evenodd" d="M93.0006 36.1665C95.8541 36.1665 98.1673 38.4797 98.1673 41.3332L98.1673 56.8332C98.1673 59.6866 95.8541 61.9998 93.0007 61.9998C90.1472 61.9998 87.834 59.6866 87.834 56.8332L87.834 41.3332C87.834 38.4797 90.1472 36.1665 93.0006 36.1665Z" fill="white"/>
<path fill-rule="evenodd" clip-rule="evenodd" d="M31.0006 36.1665C33.8541 36.1665 36.1673 38.4797 36.1673 41.3332L36.1673 56.8332C36.1673 59.6866 33.8541 61.9998 31.0007 61.9998C28.1472 61.9998 25.834 59.6866 25.834 56.8332L25.834 41.3332C25.834 38.4797 28.1472 36.1665 31.0006 36.1665Z" fill="white"/>
<path fill-rule="evenodd" clip-rule="evenodd" d="M88.2913 74.0289C91.0475 74.7674 92.6832 77.6005 91.9446 80.3567C90.1784 86.9484 86.2865 92.773 80.8725 96.9273C75.4586 101.082 68.8251 103.333 62.0009 103.333C55.1768 103.333 48.5433 101.082 43.1293 96.9273C37.7153 92.773 33.8234 86.9484 32.0572 80.3567C31.3187 77.6005 32.9544 74.7674 35.7106 74.0289C38.4668 73.2904 41.2999 74.926 42.0385 77.6823C43.2159 82.0767 45.8105 85.9598 49.4199 88.7293C53.0292 91.4989 57.4515 93 62.0009 93C66.5504 93 70.9727 91.4989 74.582 88.7293C78.1913 85.9598 80.7859 82.0767 81.9634 77.6823C82.7019 74.926 85.535 73.2904 88.2913 74.0289Z" fill="white"/>
<defs>
<linearGradient id="paint0_linear_544_394" x1="125.377" y1="-12.5586" x2="28.4237" y2="150.586" gradientUnits="userSpaceOnUse">
<stop stop-color="#F8B1CC"/>
<stop offset="0.501667" stop-color="#9654F4"/>
<stop offset="0.9" stop-color="#6200EE"/>
</linearGradient>
</defs>
</svg>
