<svg width="124" height="124" viewBox="0 0 124 124" fill="none" xmlns="http://www.w3.org/2000/svg">
<rect width="124" height="124" rx="62" fill="url(#paint0_linear_544_2115)"/>
<path fill-rule="evenodd" clip-rule="evenodd" d="M93.0006 36.1665C95.8541 36.1665 98.1673 38.4797 98.1673 41.3332L98.1673 56.8332C98.1673 59.6866 95.8541 61.9998 93.0007 61.9998C90.1472 61.9998 87.834 59.6866 87.834 56.8332L87.834 41.3332C87.834 38.4797 90.1472 36.1665 93.0006 36.1665Z" fill="white"/>
<path fill-rule="evenodd" clip-rule="evenodd" d="M31.0006 36.1665C33.8541 36.1665 36.1673 38.4797 36.1673 41.3332L36.1673 56.8332C36.1673 59.6866 33.8541 61.9998 31.0007 61.9998C28.1472 61.9998 25.834 59.6866 25.834 56.8332L25.834 41.3332C25.834 38.4797 28.1472 36.1665 31.0006 36.1665Z" fill="white"/>
<path fill-rule="evenodd" clip-rule="evenodd" d="M25.834 82.6667C25.834 79.8132 28.1472 77.5 31.0007 77.5H93.0007C95.8541 77.5 98.1673 79.8132 98.1673 82.6667C98.1673 85.5201 95.8541 87.8333 93.0007 87.8333H31.0007C28.1472 87.8333 25.834 85.5201 25.834 82.6667Z" fill="white"/>
<defs>
<linearGradient id="paint0_linear_544_2115" x1="125.377" y1="-12.5586" x2="28.4237" y2="150.586" gradientUnits="userSpaceOnUse">
<stop stop-color="#F8B1CC"/>
<stop offset="0.501667" stop-color="#9654F4"/>
<stop offset="0.9" stop-color="#6200EE"/>
</linearGradient>
</defs>
</svg>
