<svg width="124" height="124" viewBox="0 0 124 124" fill="none" xmlns="http://www.w3.org/2000/svg">
<rect width="124" height="124" rx="62" fill="url(#paint0_linear_544_2098)"/>
<path fill-rule="evenodd" clip-rule="evenodd" d="M43.1293 73.5725C48.5433 69.4183 55.1768 67.1665 62.0009 67.1665C68.8251 67.1665 75.4586 69.4183 80.8726 73.5726C86.2865 77.7268 90.1784 83.5515 91.9446 90.1431C92.6832 92.8994 91.0475 95.7325 88.2913 96.471C85.535 97.2095 82.7019 95.5738 81.9634 92.8176C80.7859 88.4232 78.1913 84.5401 74.582 81.7705C70.9727 79.001 66.5504 77.4998 62.0009 77.4998C57.4515 77.4998 53.0292 79.001 49.4199 81.7705C45.8105 84.5401 43.2159 88.4232 42.0385 92.8176C41.2999 95.5738 38.4668 97.2095 35.7106 96.471C32.9544 95.7324 31.3187 92.8994 32.0572 90.1431C33.8234 83.5515 37.7153 77.7268 43.1293 73.5725Z" fill="white"/>
<path fill-rule="evenodd" clip-rule="evenodd" d="M31.0006 36.1665C33.8541 36.1665 36.1673 38.4797 36.1673 41.3332V56.8332C36.1673 59.6866 33.8541 61.9998 31.0006 61.9998C28.1472 61.9998 25.834 59.6866 25.834 56.8332V41.3332C25.834 38.4797 28.1472 36.1665 31.0006 36.1665Z" fill="white"/>
<path fill-rule="evenodd" clip-rule="evenodd" d="M93.0006 36.1665C95.8541 36.1665 98.1673 38.4797 98.1673 41.3332V56.8332C98.1673 59.6866 95.8541 61.9998 93.0006 61.9998C90.1472 61.9998 87.834 59.6866 87.834 56.8332V41.3332C87.834 38.4797 90.1472 36.1665 93.0006 36.1665Z" fill="white"/>
<defs>
<linearGradient id="paint0_linear_544_2098" x1="125.377" y1="-12.5586" x2="28.4237" y2="150.586" gradientUnits="userSpaceOnUse">
<stop stop-color="#F8B1CC"/>
<stop offset="0.501667" stop-color="#9654F4"/>
<stop offset="0.9" stop-color="#6200EE"/>
</linearGradient>
</defs>
</svg>
