<svg width="124" height="125" viewBox="0 0 124 125" fill="none" xmlns="http://www.w3.org/2000/svg">
<rect y="0.5" width="124" height="124" rx="62" fill="url(#paint0_linear_87_10057)"/>
<path fill-rule="evenodd" clip-rule="evenodd" d="M81.9024 43.0134C83.7829 42.2344 85.7985 41.8335 87.834 41.8335C89.8695 41.8335 91.885 42.2344 93.7656 43.0134C95.6461 43.7923 97.3548 44.934 98.7941 46.3733C100.233 47.8126 101.375 49.5214 102.154 51.4019C102.933 53.2824 103.334 55.298 103.334 57.3335C103.334 60.187 101.021 62.5002 98.1673 62.5002C95.3138 62.5002 93.0007 60.187 93.0007 57.3335C93.0007 56.655 92.867 55.9831 92.6074 55.3563C92.3477 54.7294 91.9671 54.1599 91.4874 53.6801C91.0076 53.2003 90.438 52.8198 89.8112 52.5601C89.1843 52.3005 88.5125 52.1668 87.834 52.1668C87.1555 52.1668 86.4836 52.3005 85.8568 52.5601C85.2299 52.8198 84.6604 53.2003 84.1806 53.6801C83.7008 54.1599 83.3203 54.7294 83.0606 55.3563C82.801 55.9831 82.6673 56.655 82.6673 57.3335C82.6673 60.187 80.3541 62.5002 77.5007 62.5002C74.6472 62.5002 72.334 60.187 72.334 57.3335C72.334 55.298 72.7349 53.2824 73.5139 51.4019C74.2928 49.5214 75.4345 47.8126 76.8738 46.3733C78.3131 44.934 80.0218 43.7923 81.9024 43.0134Z" fill="white"/>
<path fill-rule="evenodd" clip-rule="evenodd" d="M88.2913 74.5289C91.0475 75.2674 92.6832 78.1005 91.9446 80.8567C90.1784 87.4484 86.2865 93.273 80.8725 97.4273C75.4586 101.582 68.8251 103.833 62.0009 103.833C55.1768 103.833 48.5433 101.582 43.1293 97.4273C37.7153 93.273 33.8234 87.4484 32.0572 80.8567C31.3187 78.1005 32.9544 75.2674 35.7106 74.5289C38.4668 73.7904 41.2999 75.426 42.0385 78.1823C43.2159 82.5767 45.8105 86.4598 49.4199 89.2293C53.0292 91.9989 57.4515 93.5 62.0009 93.5C66.5504 93.5 70.9727 91.9989 74.582 89.2293C78.1913 86.4598 80.7859 82.5767 81.9634 78.1823C82.7019 75.426 85.535 73.7904 88.2913 74.5289Z" fill="white"/>
<path fill-rule="evenodd" clip-rule="evenodd" d="M30.2354 43.0134C32.1159 42.2344 34.1315 41.8335 36.167 41.8335C38.2025 41.8335 40.218 42.2344 42.0986 43.0134C43.9791 43.7923 45.6878 44.934 47.1271 46.3733C48.5665 47.8126 49.7082 49.5214 50.4871 51.4019C51.2661 53.2824 51.667 55.298 51.667 57.3335C51.667 60.187 49.3538 62.5002 46.5003 62.5002C43.6469 62.5002 41.3337 60.187 41.3337 57.3335C41.3337 56.655 41.2 55.9831 40.9404 55.3563C40.6807 54.7294 40.3001 54.1599 39.8204 53.6801C39.3406 53.2003 38.771 52.8198 38.1442 52.5601C37.5173 52.3005 36.8455 52.1668 36.167 52.1668C35.4885 52.1668 34.8166 52.3005 34.1898 52.5601C33.5629 52.8198 32.9934 53.2003 32.5136 53.6801C32.0338 54.1599 31.6533 54.7294 31.3936 55.3563C31.134 55.9831 31.0003 56.655 31.0003 57.3335C31.0003 60.187 28.6871 62.5002 25.8337 62.5002C22.9802 62.5002 20.667 60.187 20.667 57.3335C20.667 55.298 21.0679 53.2824 21.8469 51.4019C22.6258 49.5214 23.7675 47.8126 25.2068 46.3733C26.6461 44.934 28.3549 43.7923 30.2354 43.0134Z" fill="white"/>
<defs>
<linearGradient id="paint0_linear_87_10057" x1="125.377" y1="-12.0586" x2="8.55257" y2="194.215" gradientUnits="userSpaceOnUse">
<stop offset="0.175878" stop-color="#F8B1CC"/>
<stop offset="0.473367" stop-color="#E9A2D2"/>
<stop offset="0.640113" stop-color="#CF8ADD"/>
<stop offset="0.831205" stop-color="#9654F4"/>
<stop offset="0.945243" stop-color="#6200EE"/>
</linearGradient>
</defs>
</svg>
