<svg width="48" height="48" viewBox="0 0 48 48" fill="none" xmlns="http://www.w3.org/2000/svg">
<rect width="48" height="48" rx="24" fill="white"/>
<path fill-rule="evenodd" clip-rule="evenodd" d="M31.7039 16.4567C32.4319 16.1552 33.2121 16 34 16C34.7879 16 35.5681 16.1552 36.2961 16.4567C37.0241 16.7583 37.6855 17.2002 38.2426 17.7574C38.7998 18.3145 39.2417 18.9759 39.5433 19.7039C39.8448 20.4319 40 21.2121 40 22C40 23.1046 39.1046 24 38 24C36.8954 24 36 23.1046 36 22C36 21.7374 35.9483 21.4773 35.8478 21.2346C35.7472 20.992 35.5999 20.7715 35.4142 20.5858C35.2285 20.4001 35.008 20.2528 34.7654 20.1522C34.5227 20.0517 34.2626 20 34 20C33.7374 20 33.4773 20.0517 33.2346 20.1522C32.992 20.2528 32.7715 20.4001 32.5858 20.5858C32.4001 20.7715 32.2527 20.992 32.1522 21.2346C32.0517 21.4773 32 21.7374 32 22C32 23.1046 31.1046 24 30 24C28.8954 24 28 23.1046 28 22C28 21.2121 28.1552 20.4319 28.4567 19.7039C28.7583 18.9759 29.2002 18.3145 29.7574 17.7574C30.3145 17.2002 30.9759 16.7583 31.7039 16.4567Z" fill="#6200EE"/>
<path fill-rule="evenodd" clip-rule="evenodd" d="M34.1775 28.6563C35.2444 28.9422 35.8776 30.0388 35.5917 31.1058C34.908 33.6574 33.4015 35.9121 31.3057 37.5202C29.21 39.1283 26.6422 40 24.0006 40C21.359 40 18.7912 39.1283 16.6954 37.5202C14.5997 35.9121 13.0932 33.6574 12.4095 31.1058C12.1236 30.0389 12.7567 28.9422 13.8237 28.6563C14.8906 28.3704 15.9873 29.0036 16.2732 30.0705C16.729 31.7716 17.7333 33.2747 19.1305 34.3468C20.5276 35.4189 22.2395 36 24.0006 36C25.7617 36 27.4735 35.4189 28.8707 34.3468C30.2678 33.2747 31.2722 31.7716 31.728 30.0705C32.0139 29.0036 33.1106 28.3704 34.1775 28.6563Z" fill="#6200EE"/>
<path fill-rule="evenodd" clip-rule="evenodd" d="M11.7039 16.4567C12.4319 16.1552 13.2121 16 14 16C14.7879 16 15.5681 16.1552 16.2961 16.4567C17.0241 16.7583 17.6855 17.2002 18.2426 17.7574C18.7998 18.3145 19.2417 18.9759 19.5433 19.7039C19.8448 20.4319 20 21.2121 20 22C20 23.1046 19.1046 24 18 24C16.8954 24 16 23.1046 16 22C16 21.7374 15.9483 21.4773 15.8478 21.2346C15.7472 20.992 15.5999 20.7715 15.4142 20.5858C15.2285 20.4001 15.008 20.2528 14.7654 20.1522C14.5227 20.0517 14.2626 20 14 20C13.7374 20 13.4773 20.0517 13.2346 20.1522C12.992 20.2528 12.7715 20.4001 12.5858 20.5858C12.4001 20.7715 12.2527 20.992 12.1522 21.2346C12.0517 21.4773 12 21.7374 12 22C12 23.1046 11.1046 24 10 24C8.89543 24 8 23.1046 8 22C8 21.2121 8.15519 20.4319 8.45672 19.7039C8.75825 18.9759 9.20021 18.3145 9.75736 17.7574C10.3145 17.2002 10.9759 16.7583 11.7039 16.4567Z" fill="#6200EE"/>
</svg>
