<svg width="48" height="48" viewBox="0 0 48 48" fill="none" xmlns="http://www.w3.org/2000/svg">
<rect width="48" height="48" rx="24" fill="white"/>
<path fill-rule="evenodd" clip-rule="evenodd" d="M31.7041 16.4567C32.4321 16.1552 33.2123 16 34.0002 16C34.7882 16 35.5684 16.1552 36.2963 16.4567C37.0243 16.7583 37.6857 17.2002 38.2429 17.7574C38.8 18.3145 39.242 18.9759 39.5435 19.7039C39.845 20.4319 40.0002 21.2121 40.0002 22C40.0002 23.1046 39.1048 24 38.0002 24C36.8957 24 36.0002 23.1046 36.0002 22C36.0002 21.7374 35.9485 21.4773 35.848 21.2346C35.7475 20.992 35.6002 20.7715 35.4145 20.5858C35.2287 20.4001 35.0083 20.2528 34.7656 20.1522C34.523 20.0517 34.2629 20 34.0002 20C33.7376 20 33.4775 20.0517 33.2349 20.1522C32.9922 20.2528 32.7717 20.4001 32.586 20.5858C32.4003 20.7715 32.253 20.992 32.1525 21.2346C32.052 21.4773 32.0002 21.7374 32.0002 22C32.0002 23.1046 31.1048 24 30.0002 24C28.8957 24 28.0002 23.1046 28.0002 22C28.0002 21.2121 28.1554 20.4319 28.457 19.7039C28.7585 18.9759 29.2005 18.3145 29.7576 17.7574C30.3148 17.2002 30.9762 16.7583 31.7041 16.4567Z" fill="#E1E1E1"/>
<path fill-rule="evenodd" clip-rule="evenodd" d="M34.1772 28.6565C35.2442 28.9424 35.8773 30.0391 35.5915 31.106C34.9078 33.6576 33.4012 35.9123 31.3055 37.5204C29.2097 39.1286 26.642 40.0002 24.0003 40.0002C21.3587 40.0002 18.7909 39.1286 16.6952 37.5204C14.5995 35.9123 13.0929 33.6576 12.4092 31.106C12.1233 30.0391 12.7565 28.9424 13.8234 28.6565C14.8904 28.3707 15.987 29.0038 16.2729 30.0708C16.7287 31.7718 17.7331 33.275 19.1302 34.347C20.5274 35.4191 22.2393 36.0002 24.0003 36.0002C25.7614 36.0002 27.4733 35.4191 28.8704 34.347C30.2676 33.275 31.2719 31.7718 31.7277 30.0707C32.0136 29.0038 33.1103 28.3707 34.1772 28.6565Z" fill="#E1E1E1"/>
<path fill-rule="evenodd" clip-rule="evenodd" d="M11.7039 16.4567C12.4319 16.1552 13.2121 16 14 16C14.7879 16 15.5681 16.1552 16.2961 16.4567C17.0241 16.7583 17.6855 17.2002 18.2426 17.7574C18.7998 18.3145 19.2417 18.9759 19.5433 19.7039C19.8448 20.4319 20 21.2121 20 22C20 23.1046 19.1046 24 18 24C16.8954 24 16 23.1046 16 22C16 21.7374 15.9483 21.4773 15.8478 21.2346C15.7472 20.992 15.5999 20.7715 15.4142 20.5858C15.2285 20.4001 15.008 20.2528 14.7654 20.1522C14.5227 20.0517 14.2626 20 14 20C13.7374 20 13.4773 20.0517 13.2346 20.1522C12.992 20.2528 12.7715 20.4001 12.5858 20.5858C12.4001 20.7715 12.2527 20.992 12.1522 21.2346C12.0517 21.4773 12 21.7374 12 22C12 23.1046 11.1046 24 10 24C8.89543 24 8 23.1046 8 22C8 21.2121 8.15519 20.4319 8.45672 19.7039C8.75825 18.9759 9.20021 18.3145 9.75736 17.7574C10.3145 17.2002 10.9759 16.7583 11.7039 16.4567Z" fill="#E1E1E1"/>
</svg>
