<svg width="132" height="132" viewBox="0 0 132 132" fill="none" xmlns="http://www.w3.org/2000/svg">
<rect width="132" height="132" rx="66" fill="url(#paint0_linear_410_2416)"/>
<path d="M100.852 50.5119L99.868 52.7759C99.7142 53.1446 99.4548 53.4595 99.1224 53.681C98.79 53.9025 98.3995 54.0207 98 54.0207C97.6005 54.0207 97.21 53.9025 96.8776 53.681C96.5452 53.4595 96.2858 53.1446 96.132 52.7759L95.148 50.5119C93.4179 46.5068 90.2495 43.2956 86.268 41.5119L83.232 40.1559C82.8637 39.9865 82.5517 39.715 82.3329 39.3736C82.1142 39.0323 81.998 38.6354 81.998 38.2299C81.998 37.8245 82.1142 37.4276 82.3329 37.0862C82.5517 36.7448 82.8637 36.4734 83.232 36.3039L86.1 35.0279C90.1816 33.1934 93.4042 29.8635 95.104 25.7239L96.116 23.2799C96.2646 22.9013 96.5239 22.5763 96.8599 22.3472C97.196 22.1181 97.5933 21.9956 98 21.9956C98.4067 21.9956 98.804 22.1181 99.1401 22.3472C99.4761 22.5763 99.7354 22.9013 99.884 23.2799L100.896 25.7199C102.594 29.8602 105.815 33.1917 109.896 35.0279L112.768 36.3079C113.135 36.4778 113.446 36.7493 113.664 37.0902C113.882 37.4312 113.998 37.8273 113.998 38.2319C113.998 38.6365 113.882 39.0327 113.664 39.3736C113.446 39.7146 113.135 39.986 112.768 40.1559L109.728 41.5079C105.747 43.2934 102.58 46.506 100.852 50.5119ZM98 61.9999C100.715 62.0021 103.41 61.5436 105.972 60.6439C105.991 61.0973 106 61.5493 106 61.9999C106 70.4869 102.629 78.6262 96.6274 84.6273C90.6263 90.6285 82.4869 93.9999 74 93.9999V108C54 99.9999 26 87.9999 26 61.9999C26 53.513 29.3714 45.3737 35.3726 39.3725C41.3737 33.3713 49.5131 29.9999 58 29.9999H74C74.4533 29.9999 74.9053 30.0093 75.356 30.0279C74.0813 33.6476 73.6932 37.5202 74.2242 41.3209C74.7552 45.1216 76.1899 48.7395 78.4079 51.8712C80.6259 55.0029 83.5626 57.557 86.9715 59.3194C90.3805 61.0818 94.1624 62.001 98 61.9999Z" fill="white"/>
<defs>
<linearGradient id="paint0_linear_410_2416" x1="133.465" y1="-13.3688" x2="30.2574" y2="160.301" gradientUnits="userSpaceOnUse">
<stop stop-color="#F8B1CC"/>
<stop offset="0.501667" stop-color="#9654F4"/>
<stop offset="0.9" stop-color="#6200EE"/>
</linearGradient>
</defs>
</svg>
