<svg width="132" height="132" viewBox="0 0 132 132" fill="none" xmlns="http://www.w3.org/2000/svg">
<rect width="132" height="132" rx="66" fill="url(#paint0_linear_404_2098)"/>
<path d="M42.8541 50.5163L41.8701 52.7803C41.7163 53.149 41.4569 53.4639 41.1245 53.6854C40.792 53.9069 40.4015 54.0251 40.0021 54.0251C39.6026 54.0251 39.2121 53.9069 38.8797 53.6854C38.5473 53.4639 38.2879 53.149 38.1341 52.7803L37.1501 50.5163C35.42 46.5112 32.2516 43.3 28.2701 41.5163L25.2341 40.1603C24.8657 39.9909 24.5537 39.7194 24.335 39.378C24.1163 39.0367 24 38.6397 24 38.2343C24 37.8289 24.1163 37.432 24.335 37.0906C24.5537 36.7492 24.8657 36.4778 25.2341 36.3083L28.1021 35.0323C32.1837 33.1978 35.4063 29.8678 37.1061 25.7283L38.1221 23.2843C38.2707 22.9057 38.53 22.5807 38.866 22.3516C39.2021 22.1225 39.5994 22 40.0061 22C40.4128 22 40.8101 22.1225 41.1461 22.3516C41.4822 22.5807 41.7414 22.9057 41.8901 23.2843L42.9021 25.7243C44.6 29.8646 47.8212 33.1961 51.9021 35.0323L54.7741 36.3123C55.1413 36.4822 55.4522 36.7537 55.6701 37.0946C55.888 37.4355 56.0038 37.8317 56.0038 38.2363C56.0038 38.6409 55.888 39.0371 55.6701 39.378C55.4522 39.719 55.1413 39.9904 54.7741 40.1603L51.7341 41.5123C47.7533 43.2978 44.5864 46.5104 42.8581 50.5163M36.2581 108.456C40.3621 83.6923 49.2501 29.9923 108.002 29.9923C102.018 41.9923 98.0021 47.9923 94.0021 51.9923L90.0021 55.9923L96.0021 59.9923C92.0021 71.9923 80.0021 85.9923 64.0021 87.9923C53.3274 89.3257 46.6581 96.659 43.9941 109.992H36.0021L36.2581 108.456Z" fill="white"/>
<defs>
<linearGradient id="paint0_linear_404_2098" x1="133.465" y1="-13.3688" x2="30.2574" y2="160.301" gradientUnits="userSpaceOnUse">
<stop stop-color="#F8B1CC"/>
<stop offset="0.501667" stop-color="#9654F4"/>
<stop offset="0.9" stop-color="#6200EE"/>
</linearGradient>
</defs>
</svg>
