<svg width="132" height="132" viewBox="0 0 132 132" fill="none" xmlns="http://www.w3.org/2000/svg">
<rect width="132" height="132" rx="66" fill="url(#paint0_linear_410_536)"/>
<path d="M55.992 41.172C61.672 33.556 70.212 31.332 78.068 33.472C86.548 35.78 94.004 43.064 96.48 53.208C96.608 53.728 96.7187 54.248 96.812 54.768C93.2377 53.4944 89.35 53.3963 85.716 54.488C80.568 50.68 74.192 50.04 68.524 52.128C61.424 54.748 55.88 61.392 54.596 69.752C52.956 80.456 59.476 90.072 68.696 98.248L70.248 99.592C68.996 99.68 67.724 99.484 66.508 99.224C65.8832 99.0896 65.2617 98.9402 64.644 98.776L62.496 98.176C43.4 92.804 30.616 84.4 26.948 71.84C24.02 61.816 26.836 51.78 33.028 45.54C38.764 39.76 47.268 37.416 55.992 41.172ZM62.504 70.964C64.216 59.796 77.132 54.292 83.764 63.876C83.8276 63.9651 83.9237 64.0255 84.0315 64.0442C84.1393 64.0629 84.2502 64.0384 84.34 63.976C93.848 57.24 104.1 66.828 101.888 77.908C100.608 84.3347 94.648 89.668 84.008 93.908L82.268 94.588L81.216 95.02C80.308 95.376 79.348 95.66 78.48 95.508C77.616 95.356 76.812 94.756 76.08 94.116L74.84 92.996C65.5867 85.0333 61.4747 77.6893 62.504 70.964Z" fill="white"/>
<defs>
<linearGradient id="paint0_linear_410_536" x1="133.465" y1="-13.3688" x2="30.2574" y2="160.301" gradientUnits="userSpaceOnUse">
<stop stop-color="#F8B1CC"/>
<stop offset="0.501667" stop-color="#9654F4"/>
<stop offset="0.9" stop-color="#6200EE"/>
</linearGradient>
</defs>
</svg>
