<svg width="132" height="132" viewBox="0 0 132 132" fill="none" xmlns="http://www.w3.org/2000/svg">
<rect width="132" height="132" rx="66" fill="url(#paint0_linear_410_1802)"/>
<path d="M66 27.6001C62.1809 27.6001 58.5182 29.1172 55.8177 31.8178C53.1171 34.5183 51.6 38.181 51.6 42.0001C51.6 45.8192 53.1171 49.4819 55.8177 52.1824C58.5182 54.883 62.1809 56.4001 66 56.4001C69.8191 56.4001 73.4818 54.883 76.1823 52.1824C78.8829 49.4819 80.4 45.8192 80.4 42.0001C80.4 38.181 78.8829 34.5183 76.1823 31.8178C73.4818 29.1172 69.8191 27.6001 66 27.6001ZM42.2544 65.9809C42.0912 66.7617 42.0096 67.5681 42.0096 68.4001V85.2001C42.0065 88.6849 42.7638 92.1284 44.2287 95.2903C45.6936 98.4523 47.8308 101.256 50.4912 103.507L49.6704 103.747C47.2347 104.401 44.6942 104.568 42.194 104.239C39.6937 103.911 37.2827 103.093 35.0986 101.832C32.9145 100.572 31.0001 98.8931 29.4647 96.8926C27.9294 94.8921 26.8032 92.6087 26.1504 90.1729L23.0448 78.5809C22.8002 77.6675 22.7379 76.7149 22.8615 75.7775C22.985 74.84 23.292 73.9361 23.7649 73.1173C24.2378 72.2985 24.8674 71.5809 25.6177 71.0054C26.3679 70.4299 27.2242 70.0078 28.1376 69.7633L42.2544 65.9809ZM81.528 103.507C84.1884 101.256 86.3256 98.4523 87.7905 95.2903C89.2554 92.1284 90.0127 88.6849 90.0096 85.2001V68.4001C90.0064 67.5681 89.9264 66.7617 89.7696 65.9809L103.882 69.7633C105.725 70.2582 107.297 71.4651 108.251 73.1186C109.205 74.7722 109.464 76.7369 108.97 78.5809L105.864 90.1729C105.193 92.6777 104.021 95.0205 102.419 97.06C100.817 99.0994 98.8191 100.793 96.5449 102.039C94.2707 103.286 91.7676 104.058 89.1867 104.31C86.6057 104.563 84.0005 104.289 81.528 103.507ZM97.2 37.2001C94.0174 37.2001 90.9652 38.4644 88.7147 40.7148C86.4643 42.9653 85.2 46.0175 85.2 49.2001C85.2 52.3827 86.4643 55.4349 88.7147 57.6854C90.9652 59.9358 94.0174 61.2001 97.2 61.2001C100.383 61.2001 103.435 59.9358 105.685 57.6854C107.936 55.4349 109.2 52.3827 109.2 49.2001C109.2 46.0175 107.936 42.9653 105.685 40.7148C103.435 38.4644 100.383 37.2001 97.2 37.2001ZM34.8 37.2001C31.6174 37.2001 28.5652 38.4644 26.3147 40.7148C24.0643 42.9653 22.8 46.0175 22.8 49.2001C22.8 52.3827 24.0643 55.4349 26.3147 57.6854C28.5652 59.9358 31.6174 61.2001 34.8 61.2001C37.9826 61.2001 41.0348 59.9358 43.2853 57.6854C45.5357 55.4349 46.8 52.3827 46.8 49.2001C46.8 46.0175 45.5357 42.9653 43.2853 40.7148C41.0348 38.4644 37.9826 37.2001 34.8 37.2001ZM54 61.2001C52.0904 61.2001 50.2591 61.9587 48.9088 63.3089C47.5586 64.6592 46.8 66.4905 46.8 68.4001V85.2001C46.8 90.2923 48.8228 95.1758 52.4235 98.7766C56.0242 102.377 60.9078 104.4 66 104.4C71.0922 104.4 75.9757 102.377 79.5765 98.7766C83.1772 95.1758 85.2 90.2923 85.2 85.2001V68.4001C85.2 66.4905 84.4414 64.6592 83.0912 63.3089C81.7409 61.9587 79.9096 61.2001 78 61.2001H54Z" fill="white"/>
<defs>
<linearGradient id="paint0_linear_410_1802" x1="133.465" y1="-13.3688" x2="30.2574" y2="160.301" gradientUnits="userSpaceOnUse">
<stop stop-color="#F8B1CC"/>
<stop offset="0.501667" stop-color="#9654F4"/>
<stop offset="0.9" stop-color="#6200EE"/>
</linearGradient>
</defs>
</svg>
