<svg width="96" height="96" viewBox="0 0 96 96" fill="none" xmlns="http://www.w3.org/2000/svg">
<path d="M69.7568 43.381L36.3078 26.6513C35.3622 26.1781 34.3113 25.9546 33.255 26.0021C32.1987 26.0496 31.1721 26.3664 30.2728 26.9225C29.3734 27.4785 28.6312 28.2554 28.1167 29.1791C27.6023 30.1029 27.3326 31.1429 27.3333 32.2003V63.7996C27.3326 64.857 27.6023 65.897 28.1167 66.8208C28.6312 67.7445 29.3734 68.5214 30.2728 69.0775C31.1721 69.6335 32.1987 69.9504 33.255 69.9978C34.3113 70.0453 35.3622 69.8218 36.3078 69.3486L69.7568 52.619C70.6139 52.1894 71.3345 51.5299 71.8381 50.7141C72.3418 49.8984 72.6085 48.9586 72.6085 48C72.6085 47.0413 72.3418 46.1015 71.8381 45.2858C71.3345 44.47 70.6139 43.8105 69.7568 43.381Z" fill="#6200EE"/>
<path d="M48 94.5C73.6812 94.5 94.5 73.6812 94.5 48C94.5 22.3188 73.6812 1.5 48 1.5C22.3188 1.5 1.5 22.3188 1.5 48C1.5 73.6812 22.3188 94.5 48 94.5Z" stroke="#6200EE" stroke-width="2"/>
</svg>
