<svg width="60" height="60" viewBox="0 0 60 60" fill="none" xmlns="http://www.w3.org/2000/svg">
<g filter="url(#filter0_if_76_7917)">
<path d="M55.9999 30C56.0058 30.7622 55.7742 31.5073 55.3372 32.1317C54.9002 32.7562 54.2796 33.2289 53.5617 33.4843L38.8301 38.843L33.4753 53.5768C33.2113 54.288 32.7361 54.9014 32.1135 55.3346C31.4908 55.7678 30.7505 56 29.9921 56C29.2336 56 28.4934 55.7678 27.8707 55.3346C27.248 54.9014 26.7728 54.288 26.5089 53.5768L21.1541 38.8407L6.4225 33.4843C5.71145 33.2202 5.09822 32.7449 4.66517 32.122C4.23212 31.4992 4 30.7587 4 30C4 29.2413 4.23212 28.5008 4.66517 27.878C5.09822 27.2551 5.71145 26.7798 6.4225 26.5157L21.1541 21.1593L26.5089 6.42324C26.7728 5.71198 27.248 5.09855 27.8707 4.66537C28.4934 4.23219 29.2336 4 29.9921 4C30.7505 4 31.4908 4.23219 32.1135 4.66537C32.7361 5.09855 33.2113 5.71198 33.4753 6.42324L38.8324 21.1593L53.5617 26.5157C54.2796 26.7711 54.9002 27.2438 55.3372 27.8683C55.7742 28.4927 56.0058 29.2378 55.9999 30Z" fill="#F8B1CC"/>
</g>
<defs>
<filter id="filter0_if_76_7917" x="0" y="-4" width="60" height="64" filterUnits="userSpaceOnUse" color-interpolation-filters="sRGB">
<feFlood flood-opacity="0" result="BackgroundImageFix"/>
<feBlend mode="normal" in="SourceGraphic" in2="BackgroundImageFix" result="shape"/>
<feColorMatrix in="SourceAlpha" type="matrix" values="0 0 0 0 0 0 0 0 0 0 0 0 0 0 0 0 0 0 127 0" result="hardAlpha"/>
<feOffset dy="-8"/>
<feGaussianBlur stdDeviation="4.7"/>
<feComposite in2="hardAlpha" operator="arithmetic" k2="-1" k3="1"/>
<feColorMatrix type="matrix" values="0 0 0 0 1 0 0 0 0 1 0 0 0 0 1 0 0 0 0.2 0"/>
<feBlend mode="normal" in2="shape" result="effect1_innerShadow_76_7917"/>
<feGaussianBlur stdDeviation="2" result="effect2_foregroundBlur_76_7917"/>
</filter>
</defs>
</svg>
