<svg width="78" height="78" viewBox="0 0 78 78" fill="none" xmlns="http://www.w3.org/2000/svg">
<g filter="url(#filter0_if_76_8134)">
<path d="M72.9999 39C73.0076 39.9967 72.7047 40.9711 72.1333 41.7877C71.5618 42.6042 70.7503 43.2224 69.8114 43.5563L50.547 50.564L43.5446 69.8312C43.1994 70.7613 42.578 71.5634 41.7638 72.1299C40.9495 72.6964 39.9815 73 38.9896 73C37.9978 73 37.0298 72.6964 36.2155 72.1299C35.4013 71.5634 34.7798 70.7613 34.4347 69.8312L27.4322 50.5609L8.16788 43.5563C7.23806 43.2111 6.43613 42.5895 5.86983 41.775C5.30354 40.9605 5 39.9921 5 39C5 38.0079 5.30354 37.0395 5.86983 36.225C6.43613 35.4105 7.23806 34.7889 8.16788 34.4437L27.4322 27.4391L34.4347 8.16885C34.7798 7.23874 35.4013 6.43657 36.2155 5.8701C37.0298 5.30363 37.9978 5 38.9896 5C39.9815 5 40.9495 5.30363 41.7638 5.8701C42.578 6.43657 43.1994 7.23874 43.5446 8.16885L50.5501 27.4391L69.8114 34.4437C70.7503 34.7776 71.5618 35.3958 72.1333 36.2123C72.7047 37.0289 73.0076 38.0033 72.9999 39Z" fill="#9654F4"/>
</g>
<defs>
<filter id="filter0_if_76_8134" x="0.351955" y="-4.29609" width="77.2961" height="81.9441" filterUnits="userSpaceOnUse" color-interpolation-filters="sRGB">
<feFlood flood-opacity="0" result="BackgroundImageFix"/>
<feBlend mode="normal" in="SourceGraphic" in2="BackgroundImageFix" result="shape"/>
<feColorMatrix in="SourceAlpha" type="matrix" values="0 0 0 0 0 0 0 0 0 0 0 0 0 0 0 0 0 0 127 0" result="hardAlpha"/>
<feOffset dy="-9.29609"/>
<feGaussianBlur stdDeviation="5.46145"/>
<feComposite in2="hardAlpha" operator="arithmetic" k2="-1" k3="1"/>
<feColorMatrix type="matrix" values="0 0 0 0 1 0 0 0 0 1 0 0 0 0 1 0 0 0 0.2 0"/>
<feBlend mode="normal" in2="shape" result="effect1_innerShadow_76_8134"/>
<feGaussianBlur stdDeviation="2.32402" result="effect2_foregroundBlur_76_8134"/>
</filter>
</defs>
</svg>
